<?xml version="1.0" encoding="UTF-8" standalone="no"?>
<!DOCTYPE svg PUBLIC "-//W3C//DTD SVG 1.1//EN" "http://www.w3.org/Graphics/SVG/1.1/DTD/svg11.dtd">
<svg width="100%" height="100%" viewBox="0 0 1000 1000" version="1.1" xmlns="http://www.w3.org/2000/svg" xmlns:xlink="http://www.w3.org/1999/xlink" xml:space="preserve" xmlns:serif="http://www.serif.com/" style="fill-rule:evenodd;clip-rule:evenodd;stroke-linejoin:round;stroke-miterlimit:2;">
    <g transform="matrix(1.83727,0,0,1.83727,-411.563,-414.845)">
        <path d="M296,700L296,534C296.529,521.751 313.232,500.134 327,500L304,479C298.131,472.163 295.581,463.43 296,453L296,309C295.754,283.673 308.564,275.752 332,282L490,390L490,574L356,476L469,396L333,303C321.254,295.718 315.343,297.862 315,309L318,467L490,590C493.022,593.667 493.118,597.333 490,601L332,715C311.64,718.314 300.572,712.386 296,700Z" style="fill:rgb(231,0,18);"/>
    </g>
    <g transform="matrix(-1.83727,0,0,1.83727,1411.56,-414.845)">
        <path d="M296,700L296,534C296.529,521.751 318.232,500.134 327,500L304,479C298.131,472.163 295.581,463.43 296,453L296,309C295.754,283.673 308.564,275.752 332,282L490,390L490,574L356,476L469,396L333,303C321.254,295.718 315.343,297.862 315,309L318,467L490,590C493.022,593.667 493.118,597.333 490,601L332,715C311.64,718.314 300.572,712.386 296,700Z" style="fill:rgb(231,0,18);"/>
    </g>
</svg>
